<mxfile host="app.diagrams.net" modified="2020-12-26T21:38:10.638Z" agent="5.0 (X11)" etag="xequiNvb2OztfKIX90CC" version="14.1.2" type="github" pages="2">
  <diagram id="7QpzADUBKZK3mpQBf36s" name="EventChannel">
    <mxGraphModel dx="1422" dy="804" grid="1" gridSize="10" guides="1" tooltips="1" connect="1" arrows="1" fold="1" page="1" pageScale="1" pageWidth="827" pageHeight="1169" math="0" shadow="0">
      <root>
        <mxCell id="0" />
        <mxCell id="1" parent="0" />
        <mxCell id="0TpvV7MQDvvR2N2ql4YP-5" value="&lt;p style=&quot;margin: 0px ; margin-top: 4px ; text-align: center&quot;&gt;EventChannel&amp;lt;Event&amp;gt;&lt;/p&gt;&lt;p style=&quot;margin: 0px ; margin-top: 4px ; text-align: center&quot;&gt;{abstract}&lt;br&gt;&lt;/p&gt;&lt;hr size=&quot;1&quot;&gt;&lt;p style=&quot;margin: 0px ; margin-left: 4px&quot;&gt;RO &lt;i&gt;event_type:Event&lt;/i&gt;&lt;/p&gt;&lt;p style=&quot;margin: 0px ; margin-left: 4px&quot;&gt;RO suscriptors:Set&amp;lt;Suscriptor&amp;lt;Event&amp;gt;&amp;gt;&lt;i&gt; &lt;br&gt;&lt;/i&gt;&lt;/p&gt;&lt;p style=&quot;margin: 0px ; margin-left: 4px&quot;&gt;# sender:object &lt;br&gt;&lt;/p&gt;&lt;hr size=&quot;1&quot;&gt;&lt;p style=&quot;margin: 0px ; margin-left: 4px&quot;&gt;+ constructor(sender:object)&lt;/p&gt;&lt;p style=&quot;margin: 0px ; margin-left: 4px&quot;&gt;+ add_suscriptor(suscriptor:Suscriptor&amp;lt;Event&amp;gt;):this&lt;/p&gt;&lt;p style=&quot;margin: 0px ; margin-left: 4px&quot;&gt;+ remove_suscriptor(suscriptor:Suscriptor&amp;lt;Event&amp;gt;):this&lt;/p&gt;&lt;p style=&quot;margin: 0px ; margin-left: 4px&quot;&gt;+ notify_all(...args:BotEvents[Event]):void&lt;br&gt;&lt;/p&gt;" style="verticalAlign=top;align=left;overflow=fill;fontSize=12;fontFamily=Helvetica;html=1;" vertex="1" parent="1">
          <mxGeometry x="40" y="80" width="360" height="200" as="geometry" />
        </mxCell>
        <mxCell id="0TpvV7MQDvvR2N2ql4YP-6" value="Extends" style="endArrow=block;endSize=16;endFill=0;html=1;exitX=0.5;exitY=1;exitDx=0;exitDy=0;entryX=0.5;entryY=0;entryDx=0;entryDy=0;" edge="1" parent="1" source="0TpvV7MQDvvR2N2ql4YP-5" target="0TpvV7MQDvvR2N2ql4YP-7">
          <mxGeometry width="160" relative="1" as="geometry">
            <mxPoint x="210" y="430" as="sourcePoint" />
            <mxPoint x="370" y="430" as="targetPoint" />
          </mxGeometry>
        </mxCell>
        <mxCell id="0TpvV7MQDvvR2N2ql4YP-7" value="&lt;p style=&quot;margin: 0px ; margin-top: 4px ; text-align: center&quot;&gt;ReadyChannel&lt;/p&gt;&lt;hr size=&quot;1&quot;&gt;&lt;p style=&quot;margin: 0px ; margin-left: 4px&quot;&gt;RO &lt;i&gt;event_type:&quot;ready&quot;&lt;/i&gt; &lt;br&gt;&lt;/p&gt;&lt;hr size=&quot;1&quot;&gt;&lt;p style=&quot;margin: 0px ; margin-left: 4px&quot;&gt;&lt;br&gt;&lt;/p&gt;" style="verticalAlign=top;align=left;overflow=fill;fontSize=12;fontFamily=Helvetica;html=1;" vertex="1" parent="1">
          <mxGeometry x="40" y="400" width="360" height="80" as="geometry" />
        </mxCell>
        <mxCell id="0TpvV7MQDvvR2N2ql4YP-9" value="&lt;div&gt;«bind»&lt;/div&gt;&lt;div&gt;&amp;lt;&quot;ready&quot;&amp;gt;&lt;br&gt;&lt;/div&gt;" style="text;html=1;strokeColor=none;fillColor=none;align=center;verticalAlign=middle;whiteSpace=wrap;rounded=0;" vertex="1" parent="1">
          <mxGeometry x="240" y="330" width="70" height="20" as="geometry" />
        </mxCell>
      </root>
    </mxGraphModel>
  </diagram>
  <diagram id="fkGmqqlBWtpwqqRFDUm4" name="Suscriptor">
    <mxGraphModel dx="1422" dy="804" grid="1" gridSize="10" guides="1" tooltips="1" connect="1" arrows="1" fold="1" page="1" pageScale="1" pageWidth="827" pageHeight="1169" math="0" shadow="0">
      <root>
        <mxCell id="cA785BEEjZ8rL7lfP3cW-0" />
        <mxCell id="cA785BEEjZ8rL7lfP3cW-1" parent="cA785BEEjZ8rL7lfP3cW-0" />
        <mxCell id="ByFbBrlBX8e7Iiw1yjD1-0" value="&lt;p style=&quot;margin: 0px ; margin-top: 4px ; text-align: center&quot;&gt;Suscriptor&amp;lt;Event&amp;gt;&lt;/p&gt;&lt;p style=&quot;margin: 0px ; margin-top: 4px ; text-align: center&quot;&gt;{abstract}&lt;br&gt;&lt;/p&gt;&lt;hr size=&quot;1&quot;&gt;&lt;p style=&quot;margin: 0px ; margin-left: 4px&quot;&gt;RO &lt;i&gt;event_type:Event&lt;/i&gt;&lt;/p&gt;&lt;p style=&quot;margin: 0px ; margin-left: 4px&quot;&gt;# channel?:EventChannel&amp;lt;Event&amp;gt;&lt;br&gt;&lt;i&gt;&lt;/i&gt;&lt;/p&gt;&lt;p style=&quot;margin: 0px ; margin-left: 4px&quot;&gt;+ set event_channel(event_channel:EventChannel&amp;lt;Event&amp;gt;)&lt;br&gt;&lt;/p&gt;&lt;hr size=&quot;1&quot;&gt;&lt;p style=&quot;margin: 0px ; margin-left: 4px&quot;&gt;+ &lt;i&gt;notified(...args:BotEvents[Event]):void&lt;/i&gt;&lt;br&gt;&lt;/p&gt;" style="verticalAlign=top;align=left;overflow=fill;fontSize=12;fontFamily=Helvetica;html=1;" vertex="1" parent="cA785BEEjZ8rL7lfP3cW-1">
          <mxGeometry x="40" y="80" width="360" height="160" as="geometry" />
        </mxCell>
        <mxCell id="ByFbBrlBX8e7Iiw1yjD1-1" value="Extends" style="endArrow=block;endSize=16;endFill=0;html=1;exitX=0.5;exitY=1;exitDx=0;exitDy=0;entryX=0.5;entryY=0;entryDx=0;entryDy=0;" edge="1" parent="cA785BEEjZ8rL7lfP3cW-1" source="ByFbBrlBX8e7Iiw1yjD1-0" target="ByFbBrlBX8e7Iiw1yjD1-2">
          <mxGeometry width="160" relative="1" as="geometry">
            <mxPoint x="210" y="430" as="sourcePoint" />
            <mxPoint x="370" y="430" as="targetPoint" />
          </mxGeometry>
        </mxCell>
        <mxCell id="ByFbBrlBX8e7Iiw1yjD1-2" value="&lt;p style=&quot;margin: 0px ; margin-top: 4px ; text-align: center&quot;&gt;ReadySuscriptor&lt;/p&gt;&lt;hr size=&quot;1&quot;&gt;&lt;p style=&quot;margin: 0px ; margin-left: 4px&quot;&gt;RO &lt;i&gt;event_type:&quot;ready&quot;&lt;/i&gt; &lt;br&gt;&lt;/p&gt;&lt;hr size=&quot;1&quot;&gt;&lt;p style=&quot;margin: 0px ; margin-left: 4px&quot;&gt;+ notified():void&lt;br&gt;&lt;/p&gt;" style="verticalAlign=top;align=left;overflow=fill;fontSize=12;fontFamily=Helvetica;html=1;" vertex="1" parent="cA785BEEjZ8rL7lfP3cW-1">
          <mxGeometry x="40" y="360" width="360" height="120" as="geometry" />
        </mxCell>
        <mxCell id="ByFbBrlBX8e7Iiw1yjD1-3" value="&lt;div&gt;«bind»&lt;/div&gt;&lt;div&gt;&amp;lt;&quot;ready&quot;&amp;gt;&lt;br&gt;&lt;/div&gt;" style="text;html=1;strokeColor=none;fillColor=none;align=center;verticalAlign=middle;whiteSpace=wrap;rounded=0;" vertex="1" parent="cA785BEEjZ8rL7lfP3cW-1">
          <mxGeometry x="240" y="290" width="70" height="20" as="geometry" />
        </mxCell>
      </root>
    </mxGraphModel>
  </diagram>
</mxfile>
